<svg width="36" height="36" viewBox="0 0 36 36" fill="none" xmlns="http://www.w3.org/2000/svg">
<rect x="6.19922" y="11.7697" width="3.19929" height="15.9965" fill="#E97A5E"/>
<rect x="9.39844" y="24.5669" width="9.82639" height="3.19929" fill="#E97A5E"/>
<path d="M19.6763 17.9961L19.5034 27.8209L16.3046 27.7646L16.4188 21.8246L19.6763 17.9961Z" fill="#E97A5E"/>
<path d="M16.9397 7.70375L2.99993 15.8831V12.4262L16.9397 4L16.9397 7.70375Z" fill="#E97A5E"/>
<line y1="-0.5" x2="20.9545" y2="-0.5" transform="matrix(0.736769 0.676144 -0.283641 0.958931 15.75 5.70106)" stroke="#E97A5E"/>
<line y1="-0.5" x2="20.9545" y2="-0.5" transform="matrix(0.736769 0.676144 -0.283641 0.958931 15.75 7.98627)" stroke="#E97A5E"/>
<line x1="23.5" y1="5.20107" x2="23.5" y2="28.2011" stroke="#E97A5E"/>
<line x1="27.5" y1="9" x2="27.5" y2="28" stroke="#E97A5E"/>
<line x1="16" y1="24.6" x2="32" y2="24.6" stroke="#E97A5E" stroke-width="0.8"/>
<line x1="16" y1="26.6" x2="32" y2="26.6" stroke="#E97A5E" stroke-width="0.8"/>
</svg>
